<?xml version="1.0" standalone="no"?>
<!DOCTYPE svg PUBLIC "-//W3C//DTD SVG 20010904//EN"
 "http://www.w3.org/TR/2001/REC-SVG-20010904/DTD/svg10.dtd">
<svg version="1.0" xmlns="http://www.w3.org/2000/svg"
 width="500.000000pt" height="500.000000pt" viewBox="0 0 500.000000 500.000000"
 preserveAspectRatio="xMidYMid meet">

<g transform="translate(0.000000,500.000000) scale(0.100000,-0.100000)"
fill="#000000" stroke="none">
<path d="M1915 3586 c-60 -19 -91 -42 -140 -107 -72 -94 -88 -134 -93 -225 -3
-65 0 -95 17 -146 31 -94 91 -171 154 -200 28 -13 33 -23 18 -32 -4 -3 -8 -18
-7 -33 l1 -28 266 -3 266 -2 89 58 c120 79 250 188 286 239 64 88 43 177 -53
225 -45 23 -74 29 -181 36 -110 8 -136 14 -194 41 -72 34 -72 31 -5 -43 20
-21 28 -36 19 -33 -10 3 -19 -1 -22 -10 -6 -14 -9 -13 -29 3 l-22 19 19 -22
c11 -13 23 -23 27 -23 4 0 20 -5 36 -11 27 -11 25 -12 -56 -40 -47 -15 -87
-26 -91 -24 -3 2 -12 0 -20 -5 -19 -12 -67 15 -107 58 -24 26 -33 31 -33 19 0
-31 -31 -18 -47 21 -17 41 -22 139 -10 192 9 34 8 35 -8 12 -28 -38 -40 -133
-26 -198 11 -46 23 -68 62 -110 l50 -52 -98 -15 -98 -16 -28 32 -28 32 11 -30
c31 -85 143 -190 239 -224 l56 -19 -61 -1 c-225 -3 -368 105 -369 279 0 103
42 180 167 303 55 53 96 97 91 96 -4 0 -26 -6 -48 -13z"/>
<path d="M2515 3582 c17 -10 45 -24 63 -32 l34 -13 -29 -12 c-15 -6 -49 -11
-75 -11 -26 1 -44 -2 -40 -6 4 -4 70 -24 147 -43 77 -20 151 -43 165 -52 39
-24 87 -78 109 -121 22 -44 37 -112 25 -112 -5 0 -15 -14 -22 -30 -8 -17 -18
-28 -23 -24 -11 6 -44 -24 -35 -33 3 -3 -2 -12 -12 -19 -14 -10 -15 -15 -4
-25 15 -16 16 -33 0 -23 -8 5 -9 2 -5 -10 5 -12 3 -15 -6 -9 -18 11 -38 13
-31 2 3 -5 10 -7 15 -4 5 4 9 3 9 -2 0 -8 -30 -27 -103 -65 -47 -25 -144 -114
-107 -98 31 13 36 16 -181 -125 -219 -143 -213 -139 -147 -110 67 28 299 152
353 190 21 14 42 25 47 25 21 0 159 101 219 160 91 91 123 159 123 265 0 99
-25 156 -94 218 -85 76 -246 137 -365 137 l-60 0 30 -18z"/>
<path d="M3174 3491 c73 -99 107 -219 69 -239 -10 -5 -24 -7 -31 -5 -7 3 -19
0 -26 -6 -15 -13 -26 4 -26 41 0 39 -8 14 -23 -72 -8 -47 -24 -105 -35 -130
-46 -102 -152 -206 -298 -292 -38 -22 -123 -72 -189 -110 -66 -39 -113 -68
-104 -65 13 4 15 1 11 -15 -6 -26 7 -22 139 37 53 23 102 40 108 36 13 -9 -36
-56 -69 -66 -14 -4 -52 -22 -85 -40 -33 -18 -134 -70 -225 -115 -271 -135
-422 -233 -525 -339 -46 -47 -85 -66 -85 -40 0 6 -7 9 -15 5 -8 -3 -15 0 -15
7 0 7 -7 3 -15 -7 -30 -40 -14 1 21 54 34 51 35 53 9 30 -42 -38 -111 -149
-130 -210 -27 -88 -37 -110 -46 -104 -16 10 -21 -23 -9 -67 36 -136 141 -262
269 -323 l66 -31 565 0 565 0 65 31 c129 61 230 199 230 312 0 56 -26 132 -49
146 -11 7 -43 -6 -42 -17 3 -21 -1 -26 -14 -21 -11 5 -13 2 -9 -10 4 -11 1
-16 -11 -16 -10 0 -13 4 -9 13 5 8 2 8 -9 -2 -11 -9 -17 -10 -17 -2 0 6 -3 10
-7 9 -5 -1 -29 4 -55 11 -39 11 -51 11 -63 1 -13 -11 -3 -18 64 -51 64 -31 81
-45 90 -69 5 -17 6 -28 1 -25 -5 3 -14 -3 -20 -14 -8 -16 -6 -22 7 -30 10 -6
14 -10 8 -10 -17 0 -45 26 -37 34 4 5 2 5 -4 2 -7 -4 -40 6 -75 22 -35 16 -89
34 -119 40 -43 9 -282 30 -359 31 -22 0 6 28 73 72 33 21 55 39 50 39 -19 3
53 17 90 18 22 0 47 7 55 15 9 8 42 28 75 45 l58 31 -226 0 c-124 0 -226 4
-226 8 0 5 37 42 82 83 45 41 125 115 178 164 54 50 168 155 254 235 233 215
293 314 316 521 8 70 7 104 -4 158 -27 128 -102 243 -206 314 l-45 31 39 -53z
m-267 -1482 c-9 -6 -15 -14 -13 -18 3 -4 -1 -8 -9 -8 -8 0 -15 9 -15 19 0 13
7 18 28 18 23 -1 25 -2 9 -11z m-47 -4 c0 -2 -10 -9 -22 -15 -22 -11 -22 -10
-4 4 21 17 26 19 26 11z m16 -326 c3 -6 20 -17 38 -25 l31 -14 -45 7 c-49 6
-65 13 -34 13 16 1 15 3 -6 15 -18 10 -20 14 -8 15 9 0 20 -5 24 -11z"/>
<path d="M2735 2980 c-3 -5 -1 -10 4 -10 6 0 11 5 11 10 0 6 -2 10 -4 10 -3 0
-8 -4 -11 -10z"/>
</g>
</svg>
